STARTFONT 2.1
FONT -thai-dbthaitext-medium-i-normal--25-180-100-100-p-75-tis620-0
SIZE 18 100 100
FONTBOUNDINGBOX 33 28 -9 -10
STARTPROPERTIES 25
FOUNDRY "thai"
FAMILY_NAME "dbthaitext"
WEIGHT_NAME "medium"
SLANT "i"
SETWIDTH_NAME "normal"
ADD_STYLE_NAME ""
PIXEL_SIZE 25
POINT_SIZE 180
RESOLUTION_X 100
RESOLUTION_Y 100
SPACING "p"
AVERAGE_WIDTH 75
CHARSET_REGISTRY "tis620"
CHARSET_ENCODING "0"
FONT "-thai-dbthaitext-medium-i-normal--25-180-100-100-p-75-tis620-0"
COPYRIGHT "Typeface (c) The Monotype Corporation plc. Data (c) The Monotype Corporation plc/Type Solutions Inc. 1990-1992. All Rights Reserved"
RAW_PIXELSIZE 1000
RAW_POINTSIZE 723
RAW_ASCENT 736
RAW_DESCENT 415
RAW_AVERAGE_WIDTH 2994
FACE_NAME "DBThaiTextItalic5"
DEFAULT_CHAR 0
FONT_ASCENT 18
FONT_DESCENT 10
ENDPROPERTIES
CHARS 190
STARTCHAR space
ENCODING 32
SWIDTH 240 0
DWIDTH 6 0
BBX 0 0 0 0
BITMAP
ENDCHAR
STARTCHAR exclam
ENCODING 33
SWIDTH 160 0
DWIDTH 4 0
BBX 5 12 0 -1
BITMAP
08
18
10
30
30
20
20
40
40
40
80
80
ENDCHAR
STARTCHAR quotedbl
ENCODING 34
SWIDTH 200 0
DWIDTH 5 0
BBX 5 4 0 7
BITMAP
68
d8
d0
b0
ENDCHAR
STARTCHAR numbersign
ENCODING 35
SWIDTH 320 0
DWIDTH 8 0
BBX 10 10 -1 0
BITMAP
06c0
0480
0d80
3fc0
1300
3200
ff00
6c00
4800
9000
ENDCHAR
STARTCHAR dollar
ENCODING 36
SWIDTH 320 0
DWIDTH 8 0
BBX 9 14 0 -2
BITMAP
0200
0700
1d80
3480
2400
3400
3e00
0f00
0b00
9200
d600
7c00
2000
2000
ENDCHAR
STARTCHAR percent
ENCODING 37
SWIDTH 520 0
DWIDTH 13 0
BBX 11 11 1 0
BITMAP
0020
7840
4880
8900
da00
6400
08c0
1360
3220
6240
c3c0
ENDCHAR
STARTCHAR ampersand
ENCODING 38
SWIDTH 400 0
DWIDTH 10 0
BBX 8 11 0 0
BITMAP
04
0a
11
12
1c
18
6d
4f
8c
8e
f2
ENDCHAR
STARTCHAR apostrophe
ENCODING 39
SWIDTH 120 0
DWIDTH 3 0
BBX 2 4 1 7
BITMAP
40
c0
80
80
ENDCHAR
STARTCHAR parenleft
ENCODING 40
SWIDTH 200 0
DWIDTH 5 0
BBX 6 14 1 -3
BITMAP
04
08
10
20
20
40
40
c0
80
80
80
80
80
80
ENDCHAR
STARTCHAR parenright
ENCODING 41
SWIDTH 200 0
DWIDTH 5 0
BBX 6 14 -2 -3
BITMAP
04
04
04
04
04
04
0c
08
08
10
10
20
40
40
ENDCHAR
STARTCHAR asterisk
ENCODING 42
SWIDTH 240 0
DWIDTH 6 0
BBX 5 4 0 7
BITMAP
10
f8
60
f0
ENDCHAR
STARTCHAR plus
ENCODING 43
SWIDTH 360 0
DWIDTH 9 0
BBX 8 7 0 0
BITMAP
04
08
08
ff
10
30
20
ENDCHAR
STARTCHAR comma
ENCODING 44
SWIDTH 160 0
DWIDTH 4 0
BBX 3 3 0 -1
BITMAP
60
60
40
ENDCHAR
STARTCHAR minus
ENCODING 45
SWIDTH 200 0
DWIDTH 5 0
BBX 4 1 0 4
BITMAP
f0
ENDCHAR
STARTCHAR period
ENCODING 46
SWIDTH 160 0
DWIDTH 4 0
BBX 2 2 1 0
BITMAP
c0
80
ENDCHAR
STARTCHAR slash
ENCODING 47
SWIDTH 160 0
DWIDTH 4 0
BBX 8 11 -2 0
BITMAP
01
02
02
04
08
08
10
20
20
40
80
ENDCHAR
STARTCHAR 0
ENCODING 48
SWIDTH 280 0
DWIDTH 7 0
BBX 7 9 0 0
BITMAP
1c
32
62
42
46
84
84
88
70
ENDCHAR
STARTCHAR 1
ENCODING 49
SWIDTH 280 0
DWIDTH 7 0
BBX 4 9 2 0
BITMAP
10
30
e0
20
60
40
40
c0
80
ENDCHAR
STARTCHAR 2
ENCODING 50
SWIDTH 280 0
DWIDTH 7 0
BBX 8 9 -1 0
BITMAP
0e
11
21
02
04
18
20
40
fc
ENDCHAR
STARTCHAR 3
ENCODING 51
SWIDTH 280 0
DWIDTH 7 0
BBX 8 9 -1 0
BITMAP
1e
33
23
06
1c
06
c6
cc
f8
ENDCHAR
STARTCHAR 4
ENCODING 52
SWIDTH 280 0
DWIDTH 7 0
BBX 8 9 -1 0
BITMAP
01
07
0e
12
22
44
fe
0c
18
ENDCHAR
STARTCHAR 5
ENCODING 53
SWIDTH 280 0
DWIDTH 7 0
BBX 8 9 0 0
BITMAP
1f
10
20
3c
66
06
04
8c
f0
ENDCHAR
STARTCHAR 6
ENCODING 54
SWIDTH 280 0
DWIDTH 7 0
BBX 8 9 0 0
BITMAP
0e
3b
60
78
76
c6
c6
cc
78
ENDCHAR
STARTCHAR 7
ENCODING 55
SWIDTH 280 0
DWIDTH 7 0
BBX 8 9 0 0
BITMAP
3f
02
04
08
10
20
20
40
80
ENDCHAR
STARTCHAR 8
ENCODING 56
SWIDTH 280 0
DWIDTH 7 0
BBX 8 9 -1 0
BITMAP
1f
33
33
36
3c
62
c6
cc
f8
ENDCHAR
STARTCHAR 9
ENCODING 57
SWIDTH 280 0
DWIDTH 7 0
BBX 8 9 -1 0
BITMAP
1e
23
63
63
67
3e
06
cc
f8
ENDCHAR
STARTCHAR colon
ENCODING 58
SWIDTH 160 0
DWIDTH 4 0
BBX 4 8 0 0
BITMAP
30
10
00
00
00
00
c0
80
ENDCHAR
STARTCHAR semicolon
ENCODING 59
SWIDTH 160 0
DWIDTH 4 0
BBX 5 9 -1 -1
BITMAP
18
10
00
00
00
00
60
60
40
ENDCHAR
STARTCHAR less
ENCODING 60
SWIDTH 360 0
DWIDTH 9 0
BBX 8 7 1 0
BITMAP
01
0e
70
80
60
18
04
ENDCHAR
STARTCHAR equal
ENCODING 61
SWIDTH 360 0
DWIDTH 9 0
BBX 8 3 0 2
BITMAP
7f
00
fe
ENDCHAR
STARTCHAR greater
ENCODING 62
SWIDTH 360 0
DWIDTH 9 0
BBX 8 6 0 1
BITMAP
20
18
06
03
1c
20
ENDCHAR
STARTCHAR question
ENCODING 63
SWIDTH 320 0
DWIDTH 8 0
BBX 7 11 2 0
BITMAP
3c
66
c6
06
0c
18
20
60
00
40
c0
ENDCHAR
STARTCHAR at
ENCODING 64
SWIDTH 600 0
DWIDTH 15 0
BBX 15 13 0 -2
BITMAP
01f8
071c
0c06
10c6
2372
6426
4c44
c8cc
d998
cef0
c000
6000
1f00
ENDCHAR
STARTCHAR A
ENCODING 65
SWIDTH 400 0
DWIDTH 10 0
BBX 10 11 -2 0
BITMAP
00c0
01c0
03c0
06c0
04c0
0cc0
18c0
3fc0
20c0
60c0
c0c0
ENDCHAR
STARTCHAR B
ENCODING 66
SWIDTH 400 0
DWIDTH 10 0
BBX 10 11 0 0
BITMAP
1f80
10c0
1040
3040
3080
3f00
6080
6080
4100
4300
fc00
ENDCHAR
STARTCHAR C
ENCODING 67
SWIDTH 440 0
DWIDTH 11 0
BBX 10 11 0 0
BITMAP
0780
18c0
2040
6000
4000
c000
8000
8180
8100
c600
7800
ENDCHAR
STARTCHAR D
ENCODING 68
SWIDTH 440 0
DWIDTH 11 0
BBX 11 11 -1 0
BITMAP
1fc0
1860
1060
3060
3060
2060
2040
60c0
4180
4300
fe00
ENDCHAR
STARTCHAR E
ENCODING 69
SWIDTH 400 0
DWIDTH 10 0
BBX 11 11 0 0
BITMAP
1fe0
1000
1000
3000
3000
3f80
6000
4000
4000
c000
ff00
ENDCHAR
STARTCHAR F
ENCODING 70
SWIDTH 360 0
DWIDTH 9 0
BBX 11 11 -1 0
BITMAP
1fe0
1800
1000
3000
3000
3f80
6000
6000
4000
c000
c000
ENDCHAR
STARTCHAR G
ENCODING 71
SWIDTH 480 0
DWIDTH 12 0
BBX 11 11 0 0
BITMAP
07c0
1860
3060
6000
4000
c3c0
c040
c0c0
c080
c380
3c80
ENDCHAR
STARTCHAR H
ENCODING 72
SWIDTH 440 0
DWIDTH 11 0
BBX 12 11 -1 0
BITMAP
1830
1830
1020
3060
3060
3fc0
6040
60c0
4080
c080
c180
ENDCHAR
STARTCHAR I
ENCODING 73
SWIDTH 160 0
DWIDTH 4 0
BBX 5 11 0 0
BITMAP
18
18
10
30
30
20
60
60
40
c0
c0
ENDCHAR
STARTCHAR J
ENCODING 74
SWIDTH 280 0
DWIDTH 7 0
BBX 9 11 -1 0
BITMAP
0180
0180
0100
0300
0300
0200
0200
c400
8400
d800
7000
ENDCHAR
STARTCHAR K
ENCODING 75
SWIDTH 400 0
DWIDTH 10 0
BBX 12 11 0 0
BITMAP
1830
10e0
1180
3300
3c00
3c00
6600
4200
4200
c300
c100
ENDCHAR
STARTCHAR L
ENCODING 76
SWIDTH 320 0
DWIDTH 8 0
BBX 8 11 -1 0
BITMAP
1c
18
18
38
30
30
60
60
40
40
ff
ENDCHAR
STARTCHAR M
ENCODING 77
SWIDTH 480 0
DWIDTH 12 0
BBX 14 11 -1 0
BITMAP
1c0c
1c1c
1c38
3c38
3c58
2cd0
6cb0
6d30
4f20
ce60
cc60
ENDCHAR
STARTCHAR N
ENCODING 78
SWIDTH 440 0
DWIDTH 11 0
BBX 12 11 -1 0
BITMAP
1830
1c30
1c20
3460
2460
2640
6640
62c0
4380
c380
c180
ENDCHAR
STARTCHAR O
ENCODING 79
SWIDTH 480 0
DWIDTH 12 0
BBX 11 11 0 0
BITMAP
0780
1840
3060
6020
4020
c020
8040
8040
8080
4300
3c00
ENDCHAR
STARTCHAR P
ENCODING 80
SWIDTH 400 0
DWIDTH 10 0
BBX 11 11 -1 0
BITMAP
1fc0
1060
1060
3060
20c0
3f80
6000
6000
4000
c000
c000
ENDCHAR
STARTCHAR Q
ENCODING 81
SWIDTH 480 0
DWIDTH 12 0
BBX 11 11 0 0
BITMAP
0780
1840
3060
6020
4020
c020
8040
8040
8680
4300
3d80
ENDCHAR
STARTCHAR R
ENCODING 82
SWIDTH 440 0
DWIDTH 11 0
BBX 11 11 0 0
BITMAP
1fe0
1060
1020
3060
20c0
3f80
6180
4080
4080
c180
c180
ENDCHAR
STARTCHAR S
ENCODING 83
SWIDTH 400 0
DWIDTH 10 0
BBX 10 11 0 0
BITMAP
0780
18c0
3040
2000
3800
1f00
0380
0180
8100
c300
7c00
ENDCHAR
STARTCHAR T
ENCODING 84
SWIDTH 360 0
DWIDTH 9 0
BBX 9 11 2 0
BITMAP
ff80
1800
1800
1000
3000
3000
2000
2000
6000
4000
4000
ENDCHAR
STARTCHAR U
ENCODING 85
SWIDTH 440 0
DWIDTH 11 0
BBX 11 11 0 0
BITMAP
1060
3060
2040
2040
60c0
4080
4080
c180
8100
c200
7c00
ENDCHAR
STARTCHAR V
ENCODING 86
SWIDTH 400 0
DWIDTH 10 0
BBX 9 11 2 0
BITMAP
8180
8100
8300
8600
8400
cc00
d800
d000
f000
e000
c000
ENDCHAR
STARTCHAR W
ENCODING 87
SWIDTH 560 0
DWIDTH 14 0
BBX 14 11 1 0
BITMAP
430c
4308
4518
4510
c930
c960
d140
e1c0
e380
c380
c300
ENDCHAR
STARTCHAR X
ENCODING 88
SWIDTH 400 0
DWIDTH 10 0
BBX 13 11 -2 0
BITMAP
0c18
0c30
0460
06c0
0780
0300
0f00
1900
3180
6180
c180
ENDCHAR
STARTCHAR Y
ENCODING 89
SWIDTH 400 0
DWIDTH 10 0
BBX 10 11 2 0
BITMAP
c0c0
c180
6300
6600
6c00
3800
3000
2000
6000
6000
4000
ENDCHAR
STARTCHAR Z
ENCODING 90
SWIDTH 360 0
DWIDTH 9 0
BBX 12 11 -1 0
BITMAP
0ff0
0060
00c0
0180
0300
0600
0c00
1800
3000
6000
ff80
ENDCHAR
STARTCHAR bracketleft
ENCODING 91
SWIDTH 160 0
DWIDTH 4 0
BBX 8 14 -2 -3
BITMAP
07
04
0c
08
08
10
10
30
20
20
60
40
40
e0
ENDCHAR
STARTCHAR backslash
ENCODING 92
SWIDTH 160 0
DWIDTH 4 0
BBX 1 11 2 0
BITMAP
80
80
80
80
80
80
80
80
80
80
80
ENDCHAR
STARTCHAR bracketright
ENCODING 93
SWIDTH 160 0
DWIDTH 4 0
BBX 8 14 -2 -3
BITMAP
07
02
02
06
04
04
0c
08
08
10
10
30
20
e0
ENDCHAR
STARTCHAR asciicircum
ENCODING 94
SWIDTH 280 0
DWIDTH 7 0
BBX 6 6 0 5
BITMAP
0c
1c
14
24
44
84
ENDCHAR
STARTCHAR underscore
ENCODING 95
SWIDTH 320 0
DWIDTH 8 0
BBX 9 1 0 -3
BITMAP
ff80
ENDCHAR
STARTCHAR grave
ENCODING 96
SWIDTH 160 0
DWIDTH 4 0
BBX 4 4 0 2
BITMAP
70
f0
e0
e0
ENDCHAR
STARTCHAR a
ENCODING 97
SWIDTH 320 0
DWIDTH 8 0
BBX 8 8 0 0
BITMAP
1e
23
03
0e
72
c6
8c
f6
ENDCHAR
STARTCHAR b
ENCODING 98
SWIDTH 320 0
DWIDTH 8 0
BBX 8 11 -1 0
BITMAP
10
10
10
3e
33
21
41
41
42
c4
78
ENDCHAR
STARTCHAR c
ENCODING 99
SWIDTH 280 0
DWIDTH 7 0
BBX 8 8 0 0
BITMAP
1e
33
63
40
c0
c2
cc
78
ENDCHAR
STARTCHAR d
ENCODING 100
SWIDTH 320 0
DWIDTH 8 0
BBX 10 11 -1 0
BITMAP
0040
00c0
0080
1f80
3380
6300
4300
c300
c600
c600
7e00
ENDCHAR
STARTCHAR e
ENCODING 101
SWIDTH 320 0
DWIDTH 8 0
BBX 8 8 0 0
BITMAP
1e
33
63
43
ff
c0
c4
78
ENDCHAR
STARTCHAR f
ENCODING 102
SWIDTH 160 0
DWIDTH 4 0
BBX 6 11 0 0
BITMAP
0c
10
10
78
20
20
60
40
40
c0
80
ENDCHAR
STARTCHAR g
ENCODING 103
SWIDTH 320 0
DWIDTH 8 0
BBX 10 11 -1 -3
BITMAP
0f40
1980
3180
2180
6180
6300
6300
3f00
0600
c600
f800
ENDCHAR
STARTCHAR h
ENCODING 104
SWIDTH 320 0
DWIDTH 8 0
BBX 8 11 -1 0
BITMAP
18
10
10
3e
31
21
42
42
42
c4
84
ENDCHAR
STARTCHAR i
ENCODING 105
SWIDTH 120 0
DWIDTH 3 0
BBX 5 11 -1 0
BITMAP
18
10
00
10
30
20
20
40
40
c0
80
ENDCHAR
STARTCHAR j
ENCODING 106
SWIDTH 120 0
DWIDTH 3 0
BBX 8 15 -3 -3
BITMAP
01
03
00
00
02
06
04
0c
0c
08
18
18
30
30
e0
ENDCHAR
STARTCHAR k
ENCODING 107
SWIDTH 280 0
DWIDTH 7 0
BBX 8 11 -1 0
BITMAP
10
10
10
23
24
28
78
58
48
88
84
ENDCHAR
STARTCHAR l
ENCODING 108
SWIDTH 120 0
DWIDTH 3 0
BBX 5 11 -1 0
BITMAP
08
18
10
10
30
20
20
40
40
40
80
ENDCHAR
STARTCHAR m
ENCODING 109
SWIDTH 480 0
DWIDTH 12 0
BBX 12 8 0 0
BITMAP
2ef0
3310
2210
4220
4220
4420
c440
8440
ENDCHAR
STARTCHAR n
ENCODING 110
SWIDTH 320 0
DWIDTH 8 0
BBX 8 8 0 0
BITMAP
2f
31
21
42
42
42
c4
84
ENDCHAR
STARTCHAR o
ENCODING 111
SWIDTH 320 0
DWIDTH 8 0
BBX 8 8 0 0
BITMAP
1e
33
63
43
c3
c6
cc
78
ENDCHAR
STARTCHAR p
ENCODING 112
SWIDTH 320 0
DWIDTH 8 0
BBX 10 11 -1 -3
BITMAP
0f80
1cc0
18c0
30c0
30c0
3180
7300
7e00
4000
c000
8000
ENDCHAR
STARTCHAR q
ENCODING 113
SWIDTH 320 0
DWIDTH 8 0
BBX 8 11 1 -3
BITMAP
1d
33
42
42
82
84
84
7c
08
08
08
ENDCHAR
STARTCHAR r
ENCODING 114
SWIDTH 200 0
DWIDTH 5 0
BBX 6 8 0 0
BITMAP
2c
30
20
40
40
40
c0
80
ENDCHAR
STARTCHAR s
ENCODING 115
SWIDTH 280 0
DWIDTH 7 0
BBX 8 8 0 0
BITMAP
1f
33
60
78
1e
06
c6
f8
ENDCHAR
STARTCHAR t
ENCODING 116
SWIDTH 160 0
DWIDTH 4 0
BBX 5 10 0 0
BITMAP
10
10
78
20
20
60
40
40
c0
e0
ENDCHAR
STARTCHAR u
ENCODING 117
SWIDTH 320 0
DWIDTH 8 0
BBX 8 8 0 0
BITMAP
21
23
42
42
42
84
8c
f0
ENDCHAR
STARTCHAR v
ENCODING 118
SWIDTH 280 0
DWIDTH 7 0
BBX 8 8 1 0
BITMAP
c3
c6
c4
c8
d8
f0
e0
c0
ENDCHAR
STARTCHAR w
ENCODING 119
SWIDTH 440 0
DWIDTH 11 0
BBX 11 8 1 0
BITMAP
ce60
cc40
dcc0
d580
b500
a700
c600
c400
ENDCHAR
STARTCHAR x
ENCODING 120
SWIDTH 280 0
DWIDTH 7 0
BBX 9 8 -1 0
BITMAP
1180
1300
0a00
0c00
1800
3400
6400
c400
ENDCHAR
STARTCHAR y
ENCODING 121
SWIDTH 280 0
DWIDTH 7 0
BBX 10 11 -1 -3
BITMAP
10c0
1080
1100
1300
1600
1400
1800
1800
1000
2000
c000
ENDCHAR
STARTCHAR z
ENCODING 122
SWIDTH 280 0
DWIDTH 7 0
BBX 8 8 0 0
BITMAP
1f
02
04
08
10
20
60
fc
ENDCHAR
STARTCHAR braceleft
ENCODING 123
SWIDTH 200 0
DWIDTH 5 0
BBX 6 14 0 -3
BITMAP
0c
08
10
10
10
20
40
40
40
40
40
80
80
c0
ENDCHAR
STARTCHAR bar
ENCODING 124
SWIDTH 160 0
DWIDTH 4 0
BBX 5 14 -1 -3
BITMAP
08
08
10
10
10
10
20
20
20
40
40
40
80
80
ENDCHAR
STARTCHAR braceright
ENCODING 125
SWIDTH 200 0
DWIDTH 5 0
BBX 6 14 -2 -3
BITMAP
0c
04
04
04
08
08
08
08
10
10
20
20
40
c0
ENDCHAR
STARTCHAR asciitilde
ENCODING 126
SWIDTH 360 0
DWIDTH 9 0
BBX 8 3 0 4
BITMAP
20
7b
8e
ENDCHAR
STARTCHAR exclamdown
ENCODING 161
SWIDTH 360 0
DWIDTH 9 0
BBX 8 8 0 0
BITMAP
1f
21
21
21
42
42
82
84
ENDCHAR
STARTCHAR cent
ENCODING 162
SWIDTH 360 0
DWIDTH 9 0
BBX 8 8 1 0
BITMAP
79
ab
d2
12
26
24
24
f8
ENDCHAR
STARTCHAR sterling
ENCODING 163
SWIDTH 400 0
DWIDTH 10 0
BBX 9 8 1 0
BITMAP
7c80
e480
b900
c900
1100
1200
1200
7c00
ENDCHAR
STARTCHAR currency
ENCODING 164
SWIDTH 360 0
DWIDTH 9 0
BBX 8 9 1 0
BITMAP
1e
23
49
fb
fa
c2
46
c4
84
ENDCHAR
STARTCHAR yen
ENCODING 165
SWIDTH 360 0
DWIDTH 9 0
BBX 8 8 1 0
BITMAP
3f
49
fb
ba
c2
46
c4
84
ENDCHAR
STARTCHAR brokenbar
ENCODING 166
SWIDTH 440 0
DWIDTH 11 0
BBX 11 8 1 0
BITMAP
7e20
e460
9840
e840
1cc0
7280
5180
6100
ENDCHAR
STARTCHAR section
ENCODING 167
SWIDTH 280 0
DWIDTH 7 0
BBX 6 8 1 0
BITMAP
1c
14
88
88
88
50
50
60
ENDCHAR
STARTCHAR diaeresis
ENCODING 168
SWIDTH 360 0
DWIDTH 9 0
BBX 6 8 2 0
BITMAP
3c
c4
74
74
54
08
08
10
ENDCHAR
STARTCHAR copyright
ENCODING 169
SWIDTH 400 0
DWIDTH 10 0
BBX 8 8 1 0
BITMAP
1e
21
61
a2
e2
7d
65
46
ENDCHAR
STARTCHAR ordfeminine
ENCODING 170
SWIDTH 360 0
DWIDTH 9 0
BBX 9 9 1 0
BITMAP
3080
6b00
ae00
d200
1200
2400
2400
2400
f800
ENDCHAR
STARTCHAR guillemotleft
ENCODING 171
SWIDTH 400 0
DWIDTH 10 0
BBX 10 9 1 0
BITMAP
2cc0
5500
e700
b900
c900
1100
1200
1200
7c00
ENDCHAR
STARTCHAR notsign
ENCODING 172
SWIDTH 480 0
DWIDTH 12 0
BBX 12 8 0 0
BITMAP
1f10
3330
2320
4220
4240
ef40
bdc0
ec80
ENDCHAR
STARTCHAR hyphen
ENCODING 173
SWIDTH 480 0
DWIDTH 12 0
BBX 12 12 1 -4
BITMAP
1f10
3330
2320
6220
4640
e440
b4c0
ff80
0000
1c80
3d00
1e00
ENDCHAR
STARTCHAR registered
ENCODING 174
SWIDTH 400 0
DWIDTH 10 0
BBX 10 12 0 -4
BITMAP
0780
0840
0840
1040
1080
6080
b080
c100
0900
7900
9e00
e600
ENDCHAR
STARTCHAR macron
ENCODING 175
SWIDTH 400 0
DWIDTH 10 0
BBX 11 12 -1 -4
BITMAP
03c0
0c60
0c60
0840
1840
70c0
5080
6080
0980
7900
d500
fb00
ENDCHAR
STARTCHAR degree
ENCODING 176
SWIDTH 320 0
DWIDTH 8 0
BBX 11 13 -1 -5
BITMAP
07e0
0700
0080
0c80
0e80
0b00
0300
0300
0000
1e00
5a00
ac00
d800
ENDCHAR
STARTCHAR plusminus
ENCODING 177
SWIDTH 480 0
DWIDTH 12 0
BBX 11 8 0 0
BITMAP
7ee0
e520
9a60
ec40
1840
18c0
1080
1180
ENDCHAR
STARTCHAR twosuperior
ENCODING 178
SWIDTH 520 0
DWIDTH 13 0
BBX 12 8 1 0
BITMAP
3f10
4130
9920
aa20
9260
a740
ccc0
8c80
ENDCHAR
STARTCHAR threesuperior
ENCODING 179
SWIDTH 480 0
DWIDTH 12 0
BBX 11 8 1 0
BITMAP
1e20
3220
2240
4240
4440
e7a0
a4e0
c480
ENDCHAR
STARTCHAR acute
ENCODING 180
SWIDTH 360 0
DWIDTH 9 0
BBX 8 9 1 0
BITMAP
1e
23
41
9d
aa
92
a6
c4
84
ENDCHAR
STARTCHAR mu
ENCODING 181
SWIDTH 360 0
DWIDTH 9 0
BBX 8 8 1 0
BITMAP
3f
41
9d
aa
92
a6
c4
84
ENDCHAR
STARTCHAR paragraph
ENCODING 182
SWIDTH 360 0
DWIDTH 9 0
BBX 8 8 0 0
BITMAP
1f
61
21
42
42
e2
a4
c4
ENDCHAR
STARTCHAR periodcentered
ENCODING 183
SWIDTH 360 0
DWIDTH 9 0
BBX 8 8 1 0
BITMAP
e7
a9
71
51
62
42
84
84
ENDCHAR
STARTCHAR cedilla
ENCODING 184
SWIDTH 320 0
DWIDTH 8 0
BBX 9 8 0 0
BITMAP
3f80
3c00
0200
3200
2200
2400
2400
f800
ENDCHAR
STARTCHAR onesuperior
ENCODING 185
SWIDTH 400 0
DWIDTH 10 0
BBX 8 8 1 0
BITMAP
e1
e3
22
42
46
7d
c7
84
ENDCHAR
STARTCHAR masculine
ENCODING 186
SWIDTH 400 0
DWIDTH 10 0
BBX 10 8 0 0
BITMAP
3840
70c0
1080
1080
2180
2100
2300
fe00
ENDCHAR
STARTCHAR guillemotright
ENCODING 187
SWIDTH 400 0
DWIDTH 10 0
BBX 11 12 -1 0
BITMAP
0020
0020
0040
1040
2840
7080
1080
1180
2100
2100
2300
fe00
ENDCHAR
STARTCHAR onequarter
ENCODING 188
SWIDTH 360 0
DWIDTH 9 0
BBX 9 8 0 0
BITMAP
3880
3880
2100
6900
5900
6600
c200
8200
ENDCHAR
STARTCHAR onehalf
ENCODING 189
SWIDTH 360 0
DWIDTH 9 0
BBX 10 12 0 0
BITMAP
0040
0040
0080
0880
3880
3880
2100
6900
5900
6600
c200
8200
ENDCHAR
STARTCHAR threequarters
ENCODING 190
SWIDTH 440 0
DWIDTH 11 0
BBX 10 8 1 0
BITMAP
f240
e6c0
2a80
3280
5380
6300
4300
8200
ENDCHAR
STARTCHAR questiondown
ENCODING 191
SWIDTH 440 0
DWIDTH 11 0
BBX 11 12 1 0
BITMAP
0020
0020
0040
2040
d240
e680
2a80
3280
5300
6300
4300
8200
ENDCHAR
STARTCHAR Agrave
ENCODING 192
SWIDTH 400 0
DWIDTH 10 0
BBX 10 8 -1 0
BITMAP
0780
1840
0840
1080
1080
6080
a100
c100
ENDCHAR
STARTCHAR Aacute
ENCODING 193
SWIDTH 400 0
DWIDTH 10 0
BBX 10 8 0 0
BITMAP
3840
28c0
1080
1080
3980
6500
a300
c200
ENDCHAR
STARTCHAR Acircumflex
ENCODING 194
SWIDTH 360 0
DWIDTH 9 0
BBX 9 8 0 0
BITMAP
1c80
3980
2100
3100
3300
4200
c200
fc00
ENDCHAR
STARTCHAR Atilde
ENCODING 195
SWIDTH 320 0
DWIDTH 8 0
BBX 8 8 1 0
BITMAP
7f
78
0c
0c
08
38
78
70
ENDCHAR
STARTCHAR Adiaeresis
ENCODING 196
SWIDTH 360 0
DWIDTH 9 0
BBX 8 12 1 -4
BITMAP
1f
61
21
42
42
e2
a4
c4
04
08
08
08
ENDCHAR
STARTCHAR Aring
ENCODING 197
SWIDTH 360 0
DWIDTH 9 0
BBX 8 8 0 0
BITMAP
1e
21
3b
4e
46
e6
a4
e4
ENDCHAR
STARTCHAR AE
ENCODING 198
SWIDTH 400 0
DWIDTH 10 0
BBX 10 12 0 -4
BITMAP
0780
1840
0840
1080
1080
6080
a100
c100
0100
0200
0200
0200
ENDCHAR
STARTCHAR Ccedilla
ENCODING 199
SWIDTH 320 0
DWIDTH 8 0
BBX 6 8 1 0
BITMAP
78
84
04
04
08
38
30
30
ENDCHAR
STARTCHAR Egrave
ENCODING 200
SWIDTH 360 0
DWIDTH 9 0
BBX 9 9 1 0
BITMAP
0c80
3300
5600
aa00
ba00
c200
4400
8400
8400
ENDCHAR
STARTCHAR Eacute
ENCODING 201
SWIDTH 400 0
DWIDTH 10 0
BBX 10 8 0 0
BITMAP
7080
5080
24c0
2dc0
2700
2200
4200
fc00
ENDCHAR
STARTCHAR Ecircumflex
ENCODING 202
SWIDTH 360 0
DWIDTH 9 0
BBX 9 9 0 0
BITMAP
0080
1f80
2500
3b00
4a00
4600
e600
a400
e400
ENDCHAR
STARTCHAR Ediaeresis
ENCODING 203
SWIDTH 400 0
DWIDTH 10 0
BBX 8 8 1 0
BITMAP
e7
a5
46
5a
62
42
82
84
ENDCHAR
STARTCHAR Igrave
ENCODING 204
SWIDTH 440 0
DWIDTH 11 0
BBX 12 10 1 0
BITMAP
00e0
2160
53c0
e680
2a80
3a80
5300
6300
4300
c200
ENDCHAR
STARTCHAR Iacute
ENCODING 205
SWIDTH 360 0
DWIDTH 9 0
BBX 8 8 0 0
BITMAP
1f
21
31
52
72
c2
84
fc
ENDCHAR
STARTCHAR Icircumflex
ENCODING 206
SWIDTH 360 0
DWIDTH 9 0
BBX 10 9 0 0
BITMAP
0040
1fc0
3f00
0100
7100
5200
e200
c600
fc00
ENDCHAR
STARTCHAR Idiaeresis
ENCODING 207
SWIDTH 320 0
DWIDTH 8 0
BBX 8 7 1 1
BITMAP
79
fb
f6
de
7c
0c
1c
ENDCHAR
STARTCHAR ETH
ENCODING 208
SWIDTH 280 0
DWIDTH 7 0
BBX 8 8 -1 0
BITMAP
39
3e
00
00
00
64
a8
f0
ENDCHAR
STARTCHAR Ntilde
ENCODING 209
SWIDTH 0 0
DWIDTH 0 0
BBX 8 4 -5 10
BITMAP
40
a3
a6
78
ENDCHAR
STARTCHAR Ograve
ENCODING 210
SWIDTH 280 0
DWIDTH 7 0
BBX 6 8 1 0
BITMAP
78
84
0c
08
08
18
10
10
ENDCHAR
STARTCHAR Oacute
ENCODING 211
SWIDTH 280 0
DWIDTH 7 0
BBX 8 13 -2 0
BITMAP
60
a0
c0
00
00
0e
11
03
02
02
06
04
04
ENDCHAR
STARTCHAR Ocircumflex
ENCODING 212
SWIDTH 0 0
DWIDTH 0 0
BBX 7 3 -8 10
BITMAP
3e
7a
06
ENDCHAR
STARTCHAR Otilde
ENCODING 213
SWIDTH 40 0
DWIDTH 1 0
BBX 8 4 -8 10
BITMAP
01
3e
7a
06
ENDCHAR
STARTCHAR Odiaeresis
ENCODING 214
SWIDTH 0 0
DWIDTH 0 0
BBX 8 5 -9 10
BITMAP
02
0d
36
7a
06
ENDCHAR
STARTCHAR multiply
ENCODING 215
SWIDTH 40 0
DWIDTH 1 0
BBX 8 4 -8 10
BITMAP
0d
36
7a
06
ENDCHAR
STARTCHAR Ooblique
ENCODING 216
SWIDTH 0 0
DWIDTH 0 0
BBX 3 5 -4 -6
BITMAP
60
a0
e0
40
40
ENDCHAR
STARTCHAR Ugrave
ENCODING 217
SWIDTH 0 0
DWIDTH 0 0
BBX 6 5 -6 -6
BITMAP
64
ac
e8
28
70
ENDCHAR
STARTCHAR Uacute
ENCODING 218
SWIDTH 0 0
DWIDTH 0 0
BBX 2 1 -3 -3
BITMAP
c0
ENDCHAR
STARTCHAR Ucircumflex
ENCODING 219
SWIDTH 0 0
DWIDTH 0 0
BBX 2 1 -3 -6
BITMAP
c0
ENDCHAR
STARTCHAR Udiaeresis
ENCODING 220
SWIDTH 0 0
DWIDTH 0 0
BBX 1 1 0 0
BITMAP
00
ENDCHAR
STARTCHAR Yacute
ENCODING 221
SWIDTH 0 0
DWIDTH 0 0
BBX 1 1 0 0
BITMAP
00
ENDCHAR
STARTCHAR THORN
ENCODING 222
SWIDTH 0 0
DWIDTH 0 0
BBX 1 1 0 0
BITMAP
00
ENDCHAR
STARTCHAR ssharp
ENCODING 223
SWIDTH 0 0
DWIDTH 0 0
BBX 1 1 0 0
BITMAP
00
ENDCHAR
STARTCHAR agrave
ENCODING 224
SWIDTH 200 0
DWIDTH 5 0
BBX 3 8 1 0
BITMAP
20
20
40
40
40
e0
a0
c0
ENDCHAR
STARTCHAR aacute
ENCODING 225
SWIDTH 360 0
DWIDTH 9 0
BBX 8 8 0 0
BITMAP
31
22
22
44
44
f7
bb
ee
ENDCHAR
STARTCHAR acircumflex
ENCODING 226
SWIDTH 200 0
DWIDTH 5 0
BBX 8 15 0 0
BITMAP
3f
18
08
18
10
10
30
20
20
60
40
40
e0
a0
e0
ENDCHAR
STARTCHAR atilde
ENCODING 227
SWIDTH 200 0
DWIDTH 5 0
BBX 5 15 0 0
BITMAP
38
68
68
10
10
10
20
20
20
40
40
40
e0
a0
c0
ENDCHAR
STARTCHAR adiaeresis
ENCODING 228
SWIDTH 240 0
DWIDTH 6 0
BBX 5 15 1 0
BITMAP
58
68
68
50
10
10
20
20
20
40
40
40
e0
a0
c0
ENDCHAR
STARTCHAR aring
ENCODING 229
SWIDTH 280 0
DWIDTH 7 0
BBX 6 12 2 -4
BITMAP
78
84
0c
08
08
18
10
10
30
20
20
40
ENDCHAR
STARTCHAR ae
ENCODING 230
SWIDTH 400 0
DWIDTH 10 0
BBX 6 11 4 -3
BITMAP
7c
84
e4
e4
08
08
08
10
10
20
40
ENDCHAR
STARTCHAR ccedilla
ENCODING 231
SWIDTH 0 0
DWIDTH 0 0
BBX 8 5 -8 10
BITMAP
01
3e
c0
fe
dc
ENDCHAR
STARTCHAR egrave
ENCODING 232
SWIDTH 0 0
DWIDTH 0 0
BBX 2 3 -3 15
BITMAP
40
80
80
ENDCHAR
STARTCHAR eacute
ENCODING 233
SWIDTH 0 0
DWIDTH 0 0
BBX 6 3 -5 15
BITMAP
e4
e8
70
ENDCHAR
STARTCHAR ecircumflex
ENCODING 234
SWIDTH 0 0
DWIDTH 0 0
BBX 6 3 -6 15
BITMAP
74
dc
90
ENDCHAR
STARTCHAR ediaeresis
ENCODING 235
SWIDTH 0 0
DWIDTH 0 0
BBX 4 3 -4 15
BITMAP
20
f0
40
ENDCHAR
STARTCHAR igrave
ENCODING 236
SWIDTH 0 0
DWIDTH 0 0
BBX 6 4 -4 14
BITMAP
3c
40
e0
e0
ENDCHAR
STARTCHAR iacute
ENCODING 237
SWIDTH 0 0
DWIDTH 0 0
BBX 3 3 -4 10
BITMAP
40
a0
e0
ENDCHAR
STARTCHAR icircumflex
ENCODING 238
SWIDTH 0 0
DWIDTH 0 0
BBX 3 3 -4 12
BITMAP
60
a0
c0
ENDCHAR
STARTCHAR idiaeresis
ENCODING 239
SWIDTH 320 0
DWIDTH 8 0
BBX 9 8 0 0
BITMAP
1f00
2c80
5e80
be80
be80
bd00
c600
7800
ENDCHAR
STARTCHAR eth
ENCODING 240
SWIDTH 360 0
DWIDTH 9 0
BBX 8 6 0 0
BITMAP
3e
63
c3
c3
c6
78
ENDCHAR
STARTCHAR ntilde
ENCODING 241
SWIDTH 360 0
DWIDTH 9 0
BBX 8 6 1 0
BITMAP
1e
63
9f
ef
da
64
ENDCHAR
STARTCHAR ograve
ENCODING 242
SWIDTH 440 0
DWIDTH 11 0
BBX 9 9 1 0
BITMAP
2000
2000
4000
4d80
5a80
6880
b880
8100
fe00
ENDCHAR
STARTCHAR oacute
ENCODING 243
SWIDTH 400 0
DWIDTH 10 0
BBX 9 6 1 0
BITMAP
3b80
4480
4480
e880
a900
ca00
ENDCHAR
STARTCHAR ocircumflex
ENCODING 244
SWIDTH 400 0
DWIDTH 10 0
BBX 12 10 0 0
BITMAP
0010
0030
0020
0040
3f80
4800
d400
9400
cc00
7f00
ENDCHAR
STARTCHAR otilde
ENCODING 245
SWIDTH 400 0
DWIDTH 10 0
BBX 12 10 0 0
BITMAP
0010
0030
0620
0a40
3f80
4800
d400
9400
cc00
7f00
ENDCHAR
STARTCHAR odiaeresis
ENCODING 246
SWIDTH 320 0
DWIDTH 8 0
BBX 7 10 0 0
BITMAP
20
60
20
20
7e
06
26
f4
ac
70
ENDCHAR
STARTCHAR division
ENCODING 247
SWIDTH 440 0
DWIDTH 11 0
BBX 12 9 0 0
BITMAP
0010
0020
0060
3f40
4d40
c3c0
e280
d700
e600
ENDCHAR
STARTCHAR oslash
ENCODING 248
SWIDTH 400 0
DWIDTH 10 0
BBX 11 9 0 0
BITMAP
0020
0060
0040
3f80
4000
8300
b500
d300
4e00
ENDCHAR
STARTCHAR ugrave
ENCODING 249
SWIDTH 360 0
DWIDTH 9 0
BBX 10 9 0 0
BITMAP
0040
0040
0040
3b80
4400
8400
b600
ca00
7200
ENDCHAR
STARTCHAR uacute
ENCODING 250
SWIDTH 1000 0
DWIDTH 25 0
BBX 24 1 0 3
BITMAP
ffffff
ENDCHAR
STARTCHAR ucircumflex
ENCODING 251
SWIDTH 480 0
DWIDTH 12 0
BBX 12 1 0 3
BITMAP
fff0
ENDCHAR
STARTCHAR udiaeresis
ENCODING 252
SWIDTH 0 0
DWIDTH 0 0
BBX 3 5 -4 -10
BITMAP
60
a0
e0
40
40
ENDCHAR
STARTCHAR yacute
ENCODING 253
SWIDTH 0 0
DWIDTH 0 0
BBX 6 5 -6 -10
BITMAP
64
ac
e8
68
70
ENDCHAR
STARTCHAR thorn
ENCODING 254
SWIDTH 480 0
DWIDTH 12 0
BBX 11 10 0 0
BITMAP
0780
1840
2f20
4920
4b20
8e20
9240
b3c0
8300
7c00
ENDCHAR
STARTCHAR ydiaeresis
ENCODING 255
SWIDTH 0 0
DWIDTH 0 0
BBX 1 1 0 0
BITMAP
00
ENDCHAR
ENDFONT
